<svg width="14" height="14" viewBox="0 0 14 14" fill="none" xmlns="http://www.w3.org/2000/svg">
<path d="M2.9689 8.90607H2.37515C2.06021 8.90607 1.75816 8.78096 1.53546 8.55826C1.31276 8.33556 1.18765 8.03351 1.18765 7.71857V2.37482C1.18765 2.05987 1.31276 1.75783 1.53546 1.53513C1.75816 1.31243 2.06021 1.18732 2.37515 1.18732H7.7189C8.03385 1.18732 8.33589 1.31243 8.55859 1.53513C8.78129 1.75783 8.9064 2.05987 8.9064 2.37482V2.96857M6.53142 5.34383H11.8752C12.531 5.34383 13.0627 5.87549 13.0627 6.53133V11.8751C13.0627 12.5309 12.531 13.0626 11.8752 13.0626H6.53142C5.87558 13.0626 5.34392 12.5309 5.34392 11.8751V6.53133C5.34392 5.87549 5.87558 5.34383 6.53142 5.34383Z" stroke="white" stroke-width="1.1875" stroke-linecap="round" stroke-linejoin="round"/>
</svg>
